<mxfile host="app.diagrams.net" agent="Mozilla/5.0 (Macintosh; Intel Mac OS X 10_15_7) AppleWebKit/537.36 (KHTML, like Gecko) Chrome/128.0.0.0 Safari/537.36" version="24.7.8">
  <diagram name="Page-1" id="9LBjDhXcqxdZdZAu7jUv">
    <mxGraphModel dx="1990" dy="1740" grid="1" gridSize="10" guides="1" tooltips="1" connect="1" arrows="1" fold="1" page="1" pageScale="1" pageWidth="850" pageHeight="1100" math="0" shadow="0">
      <root>
        <mxCell id="0" />
        <mxCell id="1" parent="0" />
        <mxCell id="25DXGSUmXVS9__8GqDEa-127" style="edgeStyle=orthogonalEdgeStyle;rounded=0;orthogonalLoop=1;jettySize=auto;html=1;exitX=1;exitY=0.75;exitDx=0;exitDy=0;entryX=0;entryY=0.5;entryDx=0;entryDy=0;" parent="1" source="25DXGSUmXVS9__8GqDEa-2" target="25DXGSUmXVS9__8GqDEa-125" edge="1">
          <mxGeometry relative="1" as="geometry">
            <Array as="points">
              <mxPoint x="-220" y="140" />
            </Array>
          </mxGeometry>
        </mxCell>
        <mxCell id="25DXGSUmXVS9__8GqDEa-165" value="Auth Request" style="edgeLabel;html=1;align=center;verticalAlign=middle;resizable=0;points=[];" parent="25DXGSUmXVS9__8GqDEa-127" vertex="1" connectable="0">
          <mxGeometry x="-0.2667" relative="1" as="geometry">
            <mxPoint x="7" as="offset" />
          </mxGeometry>
        </mxCell>
        <mxCell id="25DXGSUmXVS9__8GqDEa-2" value="" style="shape=actor;whiteSpace=wrap;html=1;fillColor=#60a917;fontColor=#ffffff;strokeColor=#2D7600;" parent="1" vertex="1">
          <mxGeometry x="-290" y="84" width="60" height="75" as="geometry" />
        </mxCell>
        <mxCell id="ZvzzXFBq8UBPMC4j89Qv-6" style="edgeStyle=orthogonalEdgeStyle;rounded=0;orthogonalLoop=1;jettySize=auto;html=1;entryX=0;entryY=0.5;entryDx=0;entryDy=0;" edge="1" parent="1" source="25DXGSUmXVS9__8GqDEa-11" target="ZvzzXFBq8UBPMC4j89Qv-1">
          <mxGeometry relative="1" as="geometry" />
        </mxCell>
        <mxCell id="25DXGSUmXVS9__8GqDEa-11" value="&lt;font style=&quot;font-size: 18px;&quot;&gt;Authentication&lt;/font&gt;&lt;div&gt;&lt;font style=&quot;font-size: 18px;&quot;&gt;Server&lt;/font&gt;&lt;/div&gt;" style="rounded=0;whiteSpace=wrap;html=1;labelBackgroundColor=default;fillColor=#dae8fc;strokeColor=#6c8ebf;" parent="1" vertex="1">
          <mxGeometry x="450" y="-40" width="120" height="385" as="geometry" />
        </mxCell>
        <mxCell id="25DXGSUmXVS9__8GqDEa-37" value="USER" style="text;html=1;align=center;verticalAlign=middle;resizable=0;points=[];autosize=1;strokeColor=none;fillColor=none;" parent="1" vertex="1">
          <mxGeometry x="-290" y="159" width="60" height="30" as="geometry" />
        </mxCell>
        <mxCell id="25DXGSUmXVS9__8GqDEa-65" value="users" style="shape=table;startSize=30;container=1;collapsible=1;childLayout=tableLayout;fixedRows=1;rowLines=0;fontStyle=1;align=center;resizeLast=1;html=1;fillColor=#e3c800;fontColor=#000000;strokeColor=#B09500;" parent="1" vertex="1">
          <mxGeometry x="620" y="-450" width="180" height="261" as="geometry" />
        </mxCell>
        <mxCell id="25DXGSUmXVS9__8GqDEa-66" value="" style="shape=tableRow;horizontal=0;startSize=0;swimlaneHead=0;swimlaneBody=0;fillColor=none;collapsible=0;dropTarget=0;points=[[0,0.5],[1,0.5]];portConstraint=eastwest;top=0;left=0;right=0;bottom=1;" parent="25DXGSUmXVS9__8GqDEa-65" vertex="1">
          <mxGeometry y="30" width="180" height="30" as="geometry" />
        </mxCell>
        <mxCell id="25DXGSUmXVS9__8GqDEa-67" value="PK" style="shape=partialRectangle;connectable=0;fillColor=none;top=0;left=0;bottom=0;right=0;fontStyle=1;overflow=hidden;whiteSpace=wrap;html=1;" parent="25DXGSUmXVS9__8GqDEa-66" vertex="1">
          <mxGeometry width="30" height="30" as="geometry">
            <mxRectangle width="30" height="30" as="alternateBounds" />
          </mxGeometry>
        </mxCell>
        <mxCell id="25DXGSUmXVS9__8GqDEa-68" value="id" style="shape=partialRectangle;connectable=0;fillColor=none;top=0;left=0;bottom=0;right=0;align=left;spacingLeft=6;fontStyle=5;overflow=hidden;whiteSpace=wrap;html=1;" parent="25DXGSUmXVS9__8GqDEa-66" vertex="1">
          <mxGeometry x="30" width="150" height="30" as="geometry">
            <mxRectangle width="150" height="30" as="alternateBounds" />
          </mxGeometry>
        </mxCell>
        <mxCell id="25DXGSUmXVS9__8GqDEa-69" value="" style="shape=tableRow;horizontal=0;startSize=0;swimlaneHead=0;swimlaneBody=0;fillColor=none;collapsible=0;dropTarget=0;points=[[0,0.5],[1,0.5]];portConstraint=eastwest;top=0;left=0;right=0;bottom=0;" parent="25DXGSUmXVS9__8GqDEa-65" vertex="1">
          <mxGeometry y="60" width="180" height="30" as="geometry" />
        </mxCell>
        <mxCell id="25DXGSUmXVS9__8GqDEa-70" value="" style="shape=partialRectangle;connectable=0;fillColor=none;top=0;left=0;bottom=0;right=0;editable=1;overflow=hidden;whiteSpace=wrap;html=1;" parent="25DXGSUmXVS9__8GqDEa-69" vertex="1">
          <mxGeometry width="30" height="30" as="geometry">
            <mxRectangle width="30" height="30" as="alternateBounds" />
          </mxGeometry>
        </mxCell>
        <mxCell id="25DXGSUmXVS9__8GqDEa-71" value="first_name" style="shape=partialRectangle;connectable=0;fillColor=none;top=0;left=0;bottom=0;right=0;align=left;spacingLeft=6;overflow=hidden;whiteSpace=wrap;html=1;" parent="25DXGSUmXVS9__8GqDEa-69" vertex="1">
          <mxGeometry x="30" width="150" height="30" as="geometry">
            <mxRectangle width="150" height="30" as="alternateBounds" />
          </mxGeometry>
        </mxCell>
        <mxCell id="25DXGSUmXVS9__8GqDEa-281" value="" style="shape=tableRow;horizontal=0;startSize=0;swimlaneHead=0;swimlaneBody=0;fillColor=none;collapsible=0;dropTarget=0;points=[[0,0.5],[1,0.5]];portConstraint=eastwest;top=0;left=0;right=0;bottom=0;" parent="25DXGSUmXVS9__8GqDEa-65" vertex="1">
          <mxGeometry y="90" width="180" height="30" as="geometry" />
        </mxCell>
        <mxCell id="25DXGSUmXVS9__8GqDEa-282" value="" style="shape=partialRectangle;connectable=0;fillColor=none;top=0;left=0;bottom=0;right=0;editable=1;overflow=hidden;whiteSpace=wrap;html=1;" parent="25DXGSUmXVS9__8GqDEa-281" vertex="1">
          <mxGeometry width="30" height="30" as="geometry">
            <mxRectangle width="30" height="30" as="alternateBounds" />
          </mxGeometry>
        </mxCell>
        <mxCell id="25DXGSUmXVS9__8GqDEa-283" value="last_name" style="shape=partialRectangle;connectable=0;fillColor=none;top=0;left=0;bottom=0;right=0;align=left;spacingLeft=6;overflow=hidden;whiteSpace=wrap;html=1;" parent="25DXGSUmXVS9__8GqDEa-281" vertex="1">
          <mxGeometry x="30" width="150" height="30" as="geometry">
            <mxRectangle width="150" height="30" as="alternateBounds" />
          </mxGeometry>
        </mxCell>
        <mxCell id="25DXGSUmXVS9__8GqDEa-72" value="" style="shape=tableRow;horizontal=0;startSize=0;swimlaneHead=0;swimlaneBody=0;fillColor=none;collapsible=0;dropTarget=0;points=[[0,0.5],[1,0.5]];portConstraint=eastwest;top=0;left=0;right=0;bottom=0;" parent="25DXGSUmXVS9__8GqDEa-65" vertex="1">
          <mxGeometry y="120" width="180" height="30" as="geometry" />
        </mxCell>
        <mxCell id="25DXGSUmXVS9__8GqDEa-73" value="" style="shape=partialRectangle;connectable=0;fillColor=none;top=0;left=0;bottom=0;right=0;editable=1;overflow=hidden;whiteSpace=wrap;html=1;" parent="25DXGSUmXVS9__8GqDEa-72" vertex="1">
          <mxGeometry width="30" height="30" as="geometry">
            <mxRectangle width="30" height="30" as="alternateBounds" />
          </mxGeometry>
        </mxCell>
        <mxCell id="25DXGSUmXVS9__8GqDEa-74" value="email" style="shape=partialRectangle;connectable=0;fillColor=none;top=0;left=0;bottom=0;right=0;align=left;spacingLeft=6;overflow=hidden;whiteSpace=wrap;html=1;" parent="25DXGSUmXVS9__8GqDEa-72" vertex="1">
          <mxGeometry x="30" width="150" height="30" as="geometry">
            <mxRectangle width="150" height="30" as="alternateBounds" />
          </mxGeometry>
        </mxCell>
        <mxCell id="25DXGSUmXVS9__8GqDEa-78" value="" style="shape=tableRow;horizontal=0;startSize=0;swimlaneHead=0;swimlaneBody=0;fillColor=none;collapsible=0;dropTarget=0;points=[[0,0.5],[1,0.5]];portConstraint=eastwest;top=0;left=0;right=0;bottom=0;" parent="25DXGSUmXVS9__8GqDEa-65" vertex="1">
          <mxGeometry y="150" width="180" height="20" as="geometry" />
        </mxCell>
        <mxCell id="25DXGSUmXVS9__8GqDEa-79" value="" style="shape=partialRectangle;connectable=0;fillColor=none;top=0;left=0;bottom=0;right=0;editable=1;overflow=hidden;whiteSpace=wrap;html=1;" parent="25DXGSUmXVS9__8GqDEa-78" vertex="1">
          <mxGeometry width="30" height="20" as="geometry">
            <mxRectangle width="30" height="20" as="alternateBounds" />
          </mxGeometry>
        </mxCell>
        <mxCell id="25DXGSUmXVS9__8GqDEa-80" value="password" style="shape=partialRectangle;connectable=0;fillColor=none;top=0;left=0;bottom=0;right=0;align=left;spacingLeft=6;overflow=hidden;whiteSpace=wrap;html=1;" parent="25DXGSUmXVS9__8GqDEa-78" vertex="1">
          <mxGeometry x="30" width="150" height="20" as="geometry">
            <mxRectangle width="150" height="20" as="alternateBounds" />
          </mxGeometry>
        </mxCell>
        <mxCell id="25DXGSUmXVS9__8GqDEa-75" value="" style="shape=tableRow;horizontal=0;startSize=0;swimlaneHead=0;swimlaneBody=0;fillColor=none;collapsible=0;dropTarget=0;points=[[0,0.5],[1,0.5]];portConstraint=eastwest;top=0;left=0;right=0;bottom=0;" parent="25DXGSUmXVS9__8GqDEa-65" vertex="1">
          <mxGeometry y="170" width="180" height="30" as="geometry" />
        </mxCell>
        <mxCell id="25DXGSUmXVS9__8GqDEa-76" value="" style="shape=partialRectangle;connectable=0;fillColor=none;top=0;left=0;bottom=0;right=0;editable=1;overflow=hidden;whiteSpace=wrap;html=1;" parent="25DXGSUmXVS9__8GqDEa-75" vertex="1">
          <mxGeometry width="30" height="30" as="geometry">
            <mxRectangle width="30" height="30" as="alternateBounds" />
          </mxGeometry>
        </mxCell>
        <mxCell id="25DXGSUmXVS9__8GqDEa-77" value="profile_path" style="shape=partialRectangle;connectable=0;fillColor=none;top=0;left=0;bottom=0;right=0;align=left;spacingLeft=6;overflow=hidden;whiteSpace=wrap;html=1;" parent="25DXGSUmXVS9__8GqDEa-75" vertex="1">
          <mxGeometry x="30" width="150" height="30" as="geometry">
            <mxRectangle width="150" height="30" as="alternateBounds" />
          </mxGeometry>
        </mxCell>
        <mxCell id="25DXGSUmXVS9__8GqDEa-287" value="" style="shape=tableRow;horizontal=0;startSize=0;swimlaneHead=0;swimlaneBody=0;fillColor=none;collapsible=0;dropTarget=0;points=[[0,0.5],[1,0.5]];portConstraint=eastwest;top=0;left=0;right=0;bottom=0;" parent="25DXGSUmXVS9__8GqDEa-65" vertex="1">
          <mxGeometry y="200" width="180" height="30" as="geometry" />
        </mxCell>
        <mxCell id="25DXGSUmXVS9__8GqDEa-288" value="" style="shape=partialRectangle;connectable=0;fillColor=none;top=0;left=0;bottom=0;right=0;editable=1;overflow=hidden;whiteSpace=wrap;html=1;" parent="25DXGSUmXVS9__8GqDEa-287" vertex="1">
          <mxGeometry width="30" height="30" as="geometry">
            <mxRectangle width="30" height="30" as="alternateBounds" />
          </mxGeometry>
        </mxCell>
        <mxCell id="25DXGSUmXVS9__8GqDEa-289" value="created_at" style="shape=partialRectangle;connectable=0;fillColor=none;top=0;left=0;bottom=0;right=0;align=left;spacingLeft=6;overflow=hidden;whiteSpace=wrap;html=1;" parent="25DXGSUmXVS9__8GqDEa-287" vertex="1">
          <mxGeometry x="30" width="150" height="30" as="geometry">
            <mxRectangle width="150" height="30" as="alternateBounds" />
          </mxGeometry>
        </mxCell>
        <mxCell id="25DXGSUmXVS9__8GqDEa-290" value="" style="shape=tableRow;horizontal=0;startSize=0;swimlaneHead=0;swimlaneBody=0;fillColor=none;collapsible=0;dropTarget=0;points=[[0,0.5],[1,0.5]];portConstraint=eastwest;top=0;left=0;right=0;bottom=0;" parent="25DXGSUmXVS9__8GqDEa-65" vertex="1">
          <mxGeometry y="230" width="180" height="30" as="geometry" />
        </mxCell>
        <mxCell id="25DXGSUmXVS9__8GqDEa-291" value="" style="shape=partialRectangle;connectable=0;fillColor=none;top=0;left=0;bottom=0;right=0;editable=1;overflow=hidden;whiteSpace=wrap;html=1;" parent="25DXGSUmXVS9__8GqDEa-290" vertex="1">
          <mxGeometry width="30" height="30" as="geometry">
            <mxRectangle width="30" height="30" as="alternateBounds" />
          </mxGeometry>
        </mxCell>
        <mxCell id="25DXGSUmXVS9__8GqDEa-292" value="updated_at" style="shape=partialRectangle;connectable=0;fillColor=none;top=0;left=0;bottom=0;right=0;align=left;spacingLeft=6;overflow=hidden;whiteSpace=wrap;html=1;" parent="25DXGSUmXVS9__8GqDEa-290" vertex="1">
          <mxGeometry x="30" width="150" height="30" as="geometry">
            <mxRectangle width="150" height="30" as="alternateBounds" />
          </mxGeometry>
        </mxCell>
        <mxCell id="25DXGSUmXVS9__8GqDEa-88" value="" style="endArrow=classic;startArrow=classic;html=1;rounded=0;" parent="1" edge="1">
          <mxGeometry width="50" height="50" relative="1" as="geometry">
            <mxPoint x="509.5" y="-40" as="sourcePoint" />
            <mxPoint x="509.5" y="-100" as="targetPoint" />
            <Array as="points">
              <mxPoint x="509.5" y="-70" />
            </Array>
          </mxGeometry>
        </mxCell>
        <mxCell id="25DXGSUmXVS9__8GqDEa-90" value="&lt;div&gt;&lt;br&gt;&lt;/div&gt;USER　DB" style="strokeWidth=2;html=1;shape=mxgraph.flowchart.database;whiteSpace=wrap;fillColor=#ffe6cc;strokeColor=#d79b00;" parent="1" vertex="1">
          <mxGeometry x="480" y="-160" width="60" height="60" as="geometry" />
        </mxCell>
        <mxCell id="25DXGSUmXVS9__8GqDEa-106" style="edgeStyle=orthogonalEdgeStyle;rounded=0;orthogonalLoop=1;jettySize=auto;html=1;exitX=0.5;exitY=0;exitDx=0;exitDy=0;" parent="1" source="25DXGSUmXVS9__8GqDEa-101" edge="1">
          <mxGeometry relative="1" as="geometry">
            <mxPoint x="448" y="150" as="targetPoint" />
            <mxPoint x="230" y="190" as="sourcePoint" />
            <Array as="points">
              <mxPoint x="227" y="150" />
            </Array>
          </mxGeometry>
        </mxCell>
        <mxCell id="25DXGSUmXVS9__8GqDEa-107" style="edgeStyle=orthogonalEdgeStyle;rounded=0;orthogonalLoop=1;jettySize=auto;html=1;" parent="1" source="25DXGSUmXVS9__8GqDEa-101" edge="1">
          <mxGeometry relative="1" as="geometry">
            <mxPoint x="450" y="330" as="targetPoint" />
            <Array as="points">
              <mxPoint x="227" y="330" />
              <mxPoint x="450" y="330" />
            </Array>
          </mxGeometry>
        </mxCell>
        <mxCell id="25DXGSUmXVS9__8GqDEa-101" value="&lt;font style=&quot;font-size: 10px;&quot;&gt;Is User Exist?&lt;/font&gt;" style="rhombus;whiteSpace=wrap;html=1;fillColor=#1ba1e2;strokeColor=#006EAF;fontColor=#ffffff;" parent="1" vertex="1">
          <mxGeometry x="187" y="196" width="80" height="80" as="geometry" />
        </mxCell>
        <mxCell id="25DXGSUmXVS9__8GqDEa-113" value="User Registration" style="text;html=1;align=center;verticalAlign=middle;resizable=0;points=[];autosize=1;strokeColor=none;fillColor=none;" parent="1" vertex="1">
          <mxGeometry x="280" y="120" width="120" height="30" as="geometry" />
        </mxCell>
        <mxCell id="25DXGSUmXVS9__8GqDEa-114" value="User Login" style="text;html=1;align=center;verticalAlign=middle;resizable=0;points=[];autosize=1;strokeColor=none;fillColor=none;" parent="1" vertex="1">
          <mxGeometry x="280" y="300" width="80" height="30" as="geometry" />
        </mxCell>
        <mxCell id="25DXGSUmXVS9__8GqDEa-116" value="F,LName &amp;amp; Email &amp;amp; Password&amp;nbsp;" style="text;html=1;align=center;verticalAlign=middle;resizable=0;points=[];autosize=1;strokeColor=none;fillColor=none;" parent="1" vertex="1">
          <mxGeometry x="245" y="150" width="190" height="30" as="geometry" />
        </mxCell>
        <mxCell id="25DXGSUmXVS9__8GqDEa-117" value="Email &amp;amp; Password" style="text;html=1;align=center;verticalAlign=middle;resizable=0;points=[];autosize=1;strokeColor=none;fillColor=none;" parent="1" vertex="1">
          <mxGeometry x="267" y="330" width="120" height="30" as="geometry" />
        </mxCell>
        <mxCell id="25DXGSUmXVS9__8GqDEa-130" style="edgeStyle=orthogonalEdgeStyle;rounded=0;orthogonalLoop=1;jettySize=auto;html=1;entryX=-0.017;entryY=0.158;entryDx=0;entryDy=0;entryPerimeter=0;" parent="1" source="25DXGSUmXVS9__8GqDEa-125" target="25DXGSUmXVS9__8GqDEa-11" edge="1">
          <mxGeometry relative="1" as="geometry">
            <mxPoint x="430" y="20" as="targetPoint" />
            <Array as="points">
              <mxPoint x="-30" y="20" />
              <mxPoint x="70" y="20" />
            </Array>
          </mxGeometry>
        </mxCell>
        <mxCell id="25DXGSUmXVS9__8GqDEa-134" value="NO" style="edgeLabel;html=1;align=center;verticalAlign=middle;resizable=0;points=[];" parent="25DXGSUmXVS9__8GqDEa-130" vertex="1" connectable="0">
          <mxGeometry x="-0.9327" y="-1" relative="1" as="geometry">
            <mxPoint y="1" as="offset" />
          </mxGeometry>
        </mxCell>
        <mxCell id="25DXGSUmXVS9__8GqDEa-160" style="edgeStyle=orthogonalEdgeStyle;rounded=0;orthogonalLoop=1;jettySize=auto;html=1;exitX=0.5;exitY=1;exitDx=0;exitDy=0;entryX=0;entryY=0.5;entryDx=0;entryDy=0;" parent="1" source="25DXGSUmXVS9__8GqDEa-125" target="25DXGSUmXVS9__8GqDEa-159" edge="1">
          <mxGeometry relative="1" as="geometry">
            <mxPoint x="-100" y="280" as="targetPoint" />
          </mxGeometry>
        </mxCell>
        <mxCell id="25DXGSUmXVS9__8GqDEa-163" value="YES" style="edgeLabel;html=1;align=center;verticalAlign=middle;resizable=0;points=[];" parent="25DXGSUmXVS9__8GqDEa-160" vertex="1" connectable="0">
          <mxGeometry x="-0.6146" y="2" relative="1" as="geometry">
            <mxPoint y="1" as="offset" />
          </mxGeometry>
        </mxCell>
        <mxCell id="25DXGSUmXVS9__8GqDEa-125" value="&lt;font style=&quot;font-size: 10px;&quot;&gt;Is Token&lt;/font&gt;&lt;div&gt;&lt;font style=&quot;font-size: 10px;&quot;&gt;&amp;nbsp;Exist &amp;amp;&lt;/font&gt;&lt;/div&gt;&lt;div&gt;&lt;font style=&quot;font-size: 10px;&quot;&gt;Expire?&amp;nbsp;&lt;/font&gt;&lt;/div&gt;" style="rhombus;whiteSpace=wrap;html=1;fillColor=#1ba1e2;fontColor=#ffffff;strokeColor=#006EAF;" parent="1" vertex="1">
          <mxGeometry x="-140" y="100" width="80" height="80" as="geometry" />
        </mxCell>
        <mxCell id="25DXGSUmXVS9__8GqDEa-161" style="edgeStyle=orthogonalEdgeStyle;rounded=0;orthogonalLoop=1;jettySize=auto;html=1;entryX=0;entryY=0.5;entryDx=0;entryDy=0;" parent="1" source="25DXGSUmXVS9__8GqDEa-159" target="25DXGSUmXVS9__8GqDEa-101" edge="1">
          <mxGeometry relative="1" as="geometry" />
        </mxCell>
        <mxCell id="25DXGSUmXVS9__8GqDEa-162" value="Login Request" style="edgeLabel;html=1;align=center;verticalAlign=middle;resizable=0;points=[];" parent="25DXGSUmXVS9__8GqDEa-161" vertex="1" connectable="0">
          <mxGeometry x="-0.215" relative="1" as="geometry">
            <mxPoint x="10" as="offset" />
          </mxGeometry>
        </mxCell>
        <mxCell id="25DXGSUmXVS9__8GqDEa-159" value="Auth Screen" style="rounded=0;whiteSpace=wrap;html=1;fillColor=#fff2cc;strokeColor=#d6b656;" parent="1" vertex="1">
          <mxGeometry x="-60" y="221" width="120" height="30" as="geometry" />
        </mxCell>
        <mxCell id="25DXGSUmXVS9__8GqDEa-177" style="edgeStyle=orthogonalEdgeStyle;rounded=0;orthogonalLoop=1;jettySize=auto;html=1;" parent="1" source="25DXGSUmXVS9__8GqDEa-167" target="25DXGSUmXVS9__8GqDEa-176" edge="1">
          <mxGeometry relative="1" as="geometry" />
        </mxCell>
        <mxCell id="25DXGSUmXVS9__8GqDEa-178" style="edgeStyle=orthogonalEdgeStyle;rounded=0;orthogonalLoop=1;jettySize=auto;html=1;entryX=0;entryY=0.5;entryDx=0;entryDy=0;" parent="1" source="25DXGSUmXVS9__8GqDEa-167" target="25DXGSUmXVS9__8GqDEa-175" edge="1">
          <mxGeometry relative="1" as="geometry" />
        </mxCell>
        <mxCell id="25DXGSUmXVS9__8GqDEa-167" value="&lt;font size=&quot;3&quot;&gt;TODO APP&lt;/font&gt;" style="rounded=0;whiteSpace=wrap;html=1;fillColor=#d5e8d4;strokeColor=#82b366;" parent="1" vertex="1">
          <mxGeometry x="830" y="33" width="80" height="220" as="geometry" />
        </mxCell>
        <mxCell id="25DXGSUmXVS9__8GqDEa-171" value="&lt;font style=&quot;font-size: 14px;&quot;&gt;Authenticate&lt;/font&gt;" style="text;html=1;align=center;verticalAlign=middle;resizable=0;points=[];autosize=1;strokeColor=none;fillColor=none;" parent="1" vertex="1">
          <mxGeometry x="125" y="-10" width="100" height="30" as="geometry" />
        </mxCell>
        <mxCell id="25DXGSUmXVS9__8GqDEa-172" value="&lt;font style=&quot;font-size: 14px;&quot;&gt;Secret Token&lt;/font&gt;" style="text;html=1;align=center;verticalAlign=middle;resizable=0;points=[];autosize=1;strokeColor=none;fillColor=none;" parent="1" vertex="1">
          <mxGeometry x="125" y="20" width="100" height="30" as="geometry" />
        </mxCell>
        <mxCell id="25DXGSUmXVS9__8GqDEa-196" style="edgeStyle=orthogonalEdgeStyle;rounded=0;orthogonalLoop=1;jettySize=auto;html=1;entryX=0;entryY=0.5;entryDx=0;entryDy=0;" parent="1" source="25DXGSUmXVS9__8GqDEa-175" target="25DXGSUmXVS9__8GqDEa-184" edge="1">
          <mxGeometry relative="1" as="geometry">
            <mxPoint x="1280" y="-100" as="targetPoint" />
          </mxGeometry>
        </mxCell>
        <mxCell id="25DXGSUmXVS9__8GqDEa-200" style="edgeStyle=orthogonalEdgeStyle;rounded=0;orthogonalLoop=1;jettySize=auto;html=1;" parent="1" source="25DXGSUmXVS9__8GqDEa-175" target="25DXGSUmXVS9__8GqDEa-185" edge="1">
          <mxGeometry relative="1" as="geometry" />
        </mxCell>
        <mxCell id="25DXGSUmXVS9__8GqDEa-201" style="edgeStyle=orthogonalEdgeStyle;rounded=0;orthogonalLoop=1;jettySize=auto;html=1;" parent="1" source="25DXGSUmXVS9__8GqDEa-175" target="25DXGSUmXVS9__8GqDEa-186" edge="1">
          <mxGeometry relative="1" as="geometry" />
        </mxCell>
        <mxCell id="25DXGSUmXVS9__8GqDEa-202" style="edgeStyle=orthogonalEdgeStyle;rounded=0;orthogonalLoop=1;jettySize=auto;html=1;entryX=0;entryY=0.5;entryDx=0;entryDy=0;" parent="1" source="25DXGSUmXVS9__8GqDEa-175" target="25DXGSUmXVS9__8GqDEa-187" edge="1">
          <mxGeometry relative="1" as="geometry" />
        </mxCell>
        <mxCell id="25DXGSUmXVS9__8GqDEa-304" style="edgeStyle=orthogonalEdgeStyle;rounded=0;orthogonalLoop=1;jettySize=auto;html=1;entryX=0;entryY=0.5;entryDx=0;entryDy=0;" parent="1" source="25DXGSUmXVS9__8GqDEa-175" target="25DXGSUmXVS9__8GqDEa-303" edge="1">
          <mxGeometry relative="1" as="geometry" />
        </mxCell>
        <mxCell id="25DXGSUmXVS9__8GqDEa-175" value="NOTE Manage" style="ellipse;whiteSpace=wrap;html=1;fillColor=#dae8fc;strokeColor=#6c8ebf;" parent="1" vertex="1">
          <mxGeometry x="1050" y="-5" width="120" height="80" as="geometry" />
        </mxCell>
        <mxCell id="25DXGSUmXVS9__8GqDEa-205" style="edgeStyle=orthogonalEdgeStyle;rounded=0;orthogonalLoop=1;jettySize=auto;html=1;entryX=0;entryY=0.5;entryDx=0;entryDy=0;" parent="1" source="25DXGSUmXVS9__8GqDEa-176" target="25DXGSUmXVS9__8GqDEa-191" edge="1">
          <mxGeometry relative="1" as="geometry" />
        </mxCell>
        <mxCell id="25DXGSUmXVS9__8GqDEa-206" style="edgeStyle=orthogonalEdgeStyle;rounded=0;orthogonalLoop=1;jettySize=auto;html=1;entryX=0;entryY=0.5;entryDx=0;entryDy=0;" parent="1" source="25DXGSUmXVS9__8GqDEa-176" target="25DXGSUmXVS9__8GqDEa-192" edge="1">
          <mxGeometry relative="1" as="geometry" />
        </mxCell>
        <mxCell id="25DXGSUmXVS9__8GqDEa-210" style="edgeStyle=orthogonalEdgeStyle;rounded=0;orthogonalLoop=1;jettySize=auto;html=1;entryX=0;entryY=0.5;entryDx=0;entryDy=0;" parent="1" source="25DXGSUmXVS9__8GqDEa-176" target="25DXGSUmXVS9__8GqDEa-209" edge="1">
          <mxGeometry relative="1" as="geometry" />
        </mxCell>
        <mxCell id="25DXGSUmXVS9__8GqDEa-176" value="USER PROFILE" style="ellipse;whiteSpace=wrap;html=1;fillColor=#dae8fc;strokeColor=#6c8ebf;" parent="1" vertex="1">
          <mxGeometry x="1050" y="215" width="120" height="80" as="geometry" />
        </mxCell>
        <mxCell id="25DXGSUmXVS9__8GqDEa-179" value="Note DB" style="shape=cylinder3;whiteSpace=wrap;html=1;boundedLbl=1;backgroundOutline=1;size=15;fillColor=#ffe6cc;strokeColor=#d79b00;" parent="1" vertex="1">
          <mxGeometry x="1080" y="-140" width="60" height="70" as="geometry" />
        </mxCell>
        <mxCell id="25DXGSUmXVS9__8GqDEa-180" value="" style="endArrow=classic;startArrow=classic;html=1;rounded=0;" parent="1" edge="1">
          <mxGeometry width="50" height="50" relative="1" as="geometry">
            <mxPoint x="1109.44" y="-7" as="sourcePoint" />
            <mxPoint x="1109.44" y="-67" as="targetPoint" />
            <Array as="points">
              <mxPoint x="1109.44" y="-37" />
            </Array>
          </mxGeometry>
        </mxCell>
        <mxCell id="25DXGSUmXVS9__8GqDEa-181" value="&lt;div&gt;&lt;br&gt;&lt;/div&gt;USER　DB" style="strokeWidth=2;html=1;shape=mxgraph.flowchart.database;whiteSpace=wrap;fillColor=#ffe6cc;strokeColor=#d79b00;" parent="1" vertex="1">
          <mxGeometry x="1080" y="366" width="60" height="60" as="geometry" />
        </mxCell>
        <mxCell id="25DXGSUmXVS9__8GqDEa-182" value="" style="endArrow=classic;startArrow=classic;html=1;rounded=0;" parent="1" edge="1">
          <mxGeometry width="50" height="50" relative="1" as="geometry">
            <mxPoint x="1109.44" y="360" as="sourcePoint" />
            <mxPoint x="1109.44" y="300" as="targetPoint" />
            <Array as="points">
              <mxPoint x="1109.44" y="330" />
            </Array>
          </mxGeometry>
        </mxCell>
        <mxCell id="25DXGSUmXVS9__8GqDEa-184" value="Create Note" style="ellipse;whiteSpace=wrap;html=1;fillColor=#dae8fc;strokeColor=#6c8ebf;" parent="1" vertex="1">
          <mxGeometry x="1330" y="-128" width="80" height="60" as="geometry" />
        </mxCell>
        <mxCell id="25DXGSUmXVS9__8GqDEa-185" value="Update Note" style="ellipse;whiteSpace=wrap;html=1;fillColor=#dae8fc;strokeColor=#6c8ebf;" parent="1" vertex="1">
          <mxGeometry x="1330" y="-57" width="80" height="60" as="geometry" />
        </mxCell>
        <mxCell id="25DXGSUmXVS9__8GqDEa-203" style="edgeStyle=orthogonalEdgeStyle;rounded=0;orthogonalLoop=1;jettySize=auto;html=1;entryX=0;entryY=0.5;entryDx=0;entryDy=0;" parent="1" source="25DXGSUmXVS9__8GqDEa-186" target="25DXGSUmXVS9__8GqDEa-189" edge="1">
          <mxGeometry relative="1" as="geometry" />
        </mxCell>
        <mxCell id="25DXGSUmXVS9__8GqDEa-204" style="edgeStyle=orthogonalEdgeStyle;rounded=0;orthogonalLoop=1;jettySize=auto;html=1;entryX=0;entryY=0.5;entryDx=0;entryDy=0;" parent="1" source="25DXGSUmXVS9__8GqDEa-186" target="25DXGSUmXVS9__8GqDEa-190" edge="1">
          <mxGeometry relative="1" as="geometry" />
        </mxCell>
        <mxCell id="25DXGSUmXVS9__8GqDEa-186" value="Retrieve Notes" style="ellipse;whiteSpace=wrap;html=1;fillColor=#dae8fc;strokeColor=#6c8ebf;" parent="1" vertex="1">
          <mxGeometry x="1330" y="12" width="80" height="60" as="geometry" />
        </mxCell>
        <mxCell id="25DXGSUmXVS9__8GqDEa-187" value="Delete Note" style="ellipse;whiteSpace=wrap;html=1;fillColor=#dae8fc;strokeColor=#6c8ebf;" parent="1" vertex="1">
          <mxGeometry x="1330" y="85" width="80" height="60" as="geometry" />
        </mxCell>
        <mxCell id="25DXGSUmXVS9__8GqDEa-189" value="Retrieve By Priority" style="ellipse;whiteSpace=wrap;html=1;fillColor=#dae8fc;strokeColor=#6c8ebf;" parent="1" vertex="1">
          <mxGeometry x="1510" y="-27" width="80" height="60" as="geometry" />
        </mxCell>
        <mxCell id="25DXGSUmXVS9__8GqDEa-190" value="Retrieve By Date" style="ellipse;whiteSpace=wrap;html=1;fillColor=#dae8fc;strokeColor=#6c8ebf;" parent="1" vertex="1">
          <mxGeometry x="1510" y="51" width="80" height="60" as="geometry" />
        </mxCell>
        <mxCell id="25DXGSUmXVS9__8GqDEa-207" style="edgeStyle=orthogonalEdgeStyle;rounded=0;orthogonalLoop=1;jettySize=auto;html=1;entryX=0;entryY=0.5;entryDx=0;entryDy=0;" parent="1" source="25DXGSUmXVS9__8GqDEa-191" target="25DXGSUmXVS9__8GqDEa-193" edge="1">
          <mxGeometry relative="1" as="geometry" />
        </mxCell>
        <mxCell id="25DXGSUmXVS9__8GqDEa-208" style="edgeStyle=orthogonalEdgeStyle;rounded=0;orthogonalLoop=1;jettySize=auto;html=1;entryX=0;entryY=0.5;entryDx=0;entryDy=0;" parent="1" source="25DXGSUmXVS9__8GqDEa-191" target="25DXGSUmXVS9__8GqDEa-194" edge="1">
          <mxGeometry relative="1" as="geometry" />
        </mxCell>
        <mxCell id="25DXGSUmXVS9__8GqDEa-191" value="Update&amp;nbsp;&lt;div&gt;Profile Infos&lt;/div&gt;" style="ellipse;whiteSpace=wrap;html=1;fillColor=#dae8fc;strokeColor=#6c8ebf;" parent="1" vertex="1">
          <mxGeometry x="1330" y="206" width="80" height="60" as="geometry" />
        </mxCell>
        <mxCell id="25DXGSUmXVS9__8GqDEa-222" style="edgeStyle=orthogonalEdgeStyle;rounded=0;orthogonalLoop=1;jettySize=auto;html=1;entryX=0;entryY=0.5;entryDx=0;entryDy=0;" parent="1" source="25DXGSUmXVS9__8GqDEa-192" target="25DXGSUmXVS9__8GqDEa-221" edge="1">
          <mxGeometry relative="1" as="geometry" />
        </mxCell>
        <mxCell id="25DXGSUmXVS9__8GqDEa-192" value="Forgot Password" style="ellipse;whiteSpace=wrap;html=1;fillColor=#dae8fc;strokeColor=#6c8ebf;" parent="1" vertex="1">
          <mxGeometry x="1330" y="294" width="80" height="60" as="geometry" />
        </mxCell>
        <mxCell id="25DXGSUmXVS9__8GqDEa-193" value="Upload Profile" style="ellipse;whiteSpace=wrap;html=1;fillColor=#dae8fc;strokeColor=#6c8ebf;" parent="1" vertex="1">
          <mxGeometry x="1510" y="170" width="80" height="60" as="geometry" />
        </mxCell>
        <mxCell id="25DXGSUmXVS9__8GqDEa-194" value="Update basic infos" style="ellipse;whiteSpace=wrap;html=1;fillColor=#dae8fc;strokeColor=#6c8ebf;" parent="1" vertex="1">
          <mxGeometry x="1510" y="246" width="80" height="60" as="geometry" />
        </mxCell>
        <mxCell id="25DXGSUmXVS9__8GqDEa-209" value="Logout" style="ellipse;whiteSpace=wrap;html=1;fillColor=#dae8fc;strokeColor=#6c8ebf;" parent="1" vertex="1">
          <mxGeometry x="1330" y="380" width="80" height="60" as="geometry" />
        </mxCell>
        <mxCell id="25DXGSUmXVS9__8GqDEa-213" style="edgeStyle=orthogonalEdgeStyle;rounded=0;orthogonalLoop=1;jettySize=auto;html=1;entryX=1;entryY=0.5;entryDx=0;entryDy=0;" parent="1" source="25DXGSUmXVS9__8GqDEa-211" target="25DXGSUmXVS9__8GqDEa-212" edge="1">
          <mxGeometry relative="1" as="geometry" />
        </mxCell>
        <mxCell id="25DXGSUmXVS9__8GqDEa-214" value="&lt;font style=&quot;font-size: 12px;&quot;&gt;Send Confirm Mail&lt;/font&gt;" style="edgeLabel;html=1;align=center;verticalAlign=middle;resizable=0;points=[];" parent="25DXGSUmXVS9__8GqDEa-213" vertex="1" connectable="0">
          <mxGeometry x="0.0749" y="1" relative="1" as="geometry">
            <mxPoint as="offset" />
          </mxGeometry>
        </mxCell>
        <mxCell id="25DXGSUmXVS9__8GqDEa-211" value="&lt;font size=&quot;3&quot;&gt;MAIL Server&lt;/font&gt;" style="rounded=0;whiteSpace=wrap;html=1;fillColor=#dae8fc;strokeColor=#6c8ebf;" parent="1" vertex="1">
          <mxGeometry x="465" y="440" width="90" height="100" as="geometry" />
        </mxCell>
        <mxCell id="25DXGSUmXVS9__8GqDEa-215" style="edgeStyle=orthogonalEdgeStyle;rounded=0;orthogonalLoop=1;jettySize=auto;html=1;entryX=0.5;entryY=1;entryDx=0;entryDy=0;" parent="1" source="25DXGSUmXVS9__8GqDEa-212" target="25DXGSUmXVS9__8GqDEa-159" edge="1">
          <mxGeometry relative="1" as="geometry" />
        </mxCell>
        <mxCell id="25DXGSUmXVS9__8GqDEa-216" value="NO" style="edgeLabel;html=1;align=center;verticalAlign=middle;resizable=0;points=[];" parent="25DXGSUmXVS9__8GqDEa-215" vertex="1" connectable="0">
          <mxGeometry x="-0.1394" y="1" relative="1" as="geometry">
            <mxPoint x="1" y="62" as="offset" />
          </mxGeometry>
        </mxCell>
        <mxCell id="25DXGSUmXVS9__8GqDEa-217" style="edgeStyle=orthogonalEdgeStyle;rounded=0;orthogonalLoop=1;jettySize=auto;html=1;" parent="1" source="25DXGSUmXVS9__8GqDEa-212" target="25DXGSUmXVS9__8GqDEa-37" edge="1">
          <mxGeometry relative="1" as="geometry" />
        </mxCell>
        <mxCell id="25DXGSUmXVS9__8GqDEa-218" value="YES" style="edgeLabel;html=1;align=center;verticalAlign=middle;resizable=0;points=[];" parent="25DXGSUmXVS9__8GqDEa-217" vertex="1" connectable="0">
          <mxGeometry x="-0.9045" y="-4" relative="1" as="geometry">
            <mxPoint as="offset" />
          </mxGeometry>
        </mxCell>
        <mxCell id="25DXGSUmXVS9__8GqDEa-219" value="Secret Token" style="edgeLabel;html=1;align=center;verticalAlign=middle;resizable=0;points=[];" parent="25DXGSUmXVS9__8GqDEa-217" vertex="1" connectable="0">
          <mxGeometry x="0.4611" y="2" relative="1" as="geometry">
            <mxPoint y="-1" as="offset" />
          </mxGeometry>
        </mxCell>
        <mxCell id="25DXGSUmXVS9__8GqDEa-212" value="&lt;span style=&quot;font-size: 10px;&quot;&gt;Is Mail&amp;nbsp;&lt;/span&gt;&lt;div&gt;&lt;span style=&quot;font-size: 10px;&quot;&gt;Confirm&lt;/span&gt;&lt;div&gt;&lt;span style=&quot;font-size: 10px;&quot;&gt;Success?&lt;/span&gt;&lt;/div&gt;&lt;/div&gt;" style="rhombus;whiteSpace=wrap;html=1;fillColor=#1ba1e2;fontColor=#ffffff;strokeColor=#006EAF;" parent="1" vertex="1">
          <mxGeometry x="-40" y="450" width="80" height="80" as="geometry" />
        </mxCell>
        <mxCell id="25DXGSUmXVS9__8GqDEa-225" style="edgeStyle=orthogonalEdgeStyle;rounded=0;orthogonalLoop=1;jettySize=auto;html=1;entryX=0;entryY=0.5;entryDx=0;entryDy=0;" parent="1" source="25DXGSUmXVS9__8GqDEa-221" target="25DXGSUmXVS9__8GqDEa-224" edge="1">
          <mxGeometry relative="1" as="geometry" />
        </mxCell>
        <mxCell id="25DXGSUmXVS9__8GqDEa-221" value="&lt;font size=&quot;3&quot;&gt;MAIL Server&lt;/font&gt;" style="rounded=0;whiteSpace=wrap;html=1;fillColor=#dae8fc;strokeColor=#6c8ebf;" parent="1" vertex="1">
          <mxGeometry x="1505" y="366" width="90" height="100" as="geometry" />
        </mxCell>
        <mxCell id="25DXGSUmXVS9__8GqDEa-227" style="edgeStyle=orthogonalEdgeStyle;rounded=0;orthogonalLoop=1;jettySize=auto;html=1;entryX=0;entryY=0.5;entryDx=0;entryDy=0;" parent="1" source="25DXGSUmXVS9__8GqDEa-224" target="25DXGSUmXVS9__8GqDEa-226" edge="1">
          <mxGeometry relative="1" as="geometry" />
        </mxCell>
        <mxCell id="25DXGSUmXVS9__8GqDEa-224" value="Send Confirm Mail" style="rounded=0;whiteSpace=wrap;html=1;fillColor=#dae8fc;strokeColor=#6c8ebf;" parent="1" vertex="1">
          <mxGeometry x="1670" y="386" width="130" height="60" as="geometry" />
        </mxCell>
        <mxCell id="25DXGSUmXVS9__8GqDEa-230" value="Yes" style="edgeStyle=orthogonalEdgeStyle;rounded=0;orthogonalLoop=1;jettySize=auto;html=1;entryX=0.5;entryY=1;entryDx=0;entryDy=0;" parent="1" source="25DXGSUmXVS9__8GqDEa-226" target="25DXGSUmXVS9__8GqDEa-229" edge="1">
          <mxGeometry relative="1" as="geometry" />
        </mxCell>
        <mxCell id="25DXGSUmXVS9__8GqDEa-233" style="edgeStyle=orthogonalEdgeStyle;rounded=0;orthogonalLoop=1;jettySize=auto;html=1;entryX=0.5;entryY=0;entryDx=0;entryDy=0;" parent="1" source="25DXGSUmXVS9__8GqDEa-226" target="25DXGSUmXVS9__8GqDEa-232" edge="1">
          <mxGeometry relative="1" as="geometry" />
        </mxCell>
        <mxCell id="25DXGSUmXVS9__8GqDEa-236" value="NO" style="edgeLabel;html=1;align=center;verticalAlign=middle;resizable=0;points=[];" parent="25DXGSUmXVS9__8GqDEa-233" vertex="1" connectable="0">
          <mxGeometry x="-0.65" y="-2" relative="1" as="geometry">
            <mxPoint as="offset" />
          </mxGeometry>
        </mxCell>
        <mxCell id="25DXGSUmXVS9__8GqDEa-226" value="&lt;span style=&quot;font-size: 10px;&quot;&gt;Is Mail&amp;nbsp;&lt;/span&gt;&lt;div&gt;&lt;span style=&quot;font-size: 10px;&quot;&gt;Confirm&lt;/span&gt;&lt;div&gt;&lt;span style=&quot;font-size: 10px;&quot;&gt;Success?&lt;/span&gt;&lt;/div&gt;&lt;/div&gt;" style="rhombus;whiteSpace=wrap;html=1;fillColor=#1ba1e2;fontColor=#ffffff;strokeColor=#006EAF;" parent="1" vertex="1">
          <mxGeometry x="1860" y="376" width="80" height="80" as="geometry" />
        </mxCell>
        <mxCell id="25DXGSUmXVS9__8GqDEa-229" value="Reset Password" style="rounded=0;whiteSpace=wrap;html=1;fillColor=#dae8fc;strokeColor=#6c8ebf;" parent="1" vertex="1">
          <mxGeometry x="1855" y="260" width="90" height="60" as="geometry" />
        </mxCell>
        <mxCell id="25DXGSUmXVS9__8GqDEa-232" value="&lt;font color=&quot;#ff0080&quot;&gt;Action FAIL!&lt;/font&gt;" style="rounded=0;whiteSpace=wrap;html=1;fillColor=#dae8fc;strokeColor=#6c8ebf;" parent="1" vertex="1">
          <mxGeometry x="1856" y="510" width="90" height="60" as="geometry" />
        </mxCell>
        <mxCell id="25DXGSUmXVS9__8GqDEa-237" value="notes" style="shape=table;startSize=30;container=1;collapsible=1;childLayout=tableLayout;fixedRows=1;rowLines=0;fontStyle=1;align=center;resizeLast=1;html=1;fillColor=#e3c800;fontColor=#000000;strokeColor=#B09500;" parent="1" vertex="1">
          <mxGeometry x="980" y="-450" width="180" height="230" as="geometry" />
        </mxCell>
        <mxCell id="25DXGSUmXVS9__8GqDEa-238" value="" style="shape=tableRow;horizontal=0;startSize=0;swimlaneHead=0;swimlaneBody=0;fillColor=none;collapsible=0;dropTarget=0;points=[[0,0.5],[1,0.5]];portConstraint=eastwest;top=0;left=0;right=0;bottom=1;" parent="25DXGSUmXVS9__8GqDEa-237" vertex="1">
          <mxGeometry y="30" width="180" height="30" as="geometry" />
        </mxCell>
        <mxCell id="25DXGSUmXVS9__8GqDEa-239" value="PK" style="shape=partialRectangle;connectable=0;fillColor=none;top=0;left=0;bottom=0;right=0;fontStyle=1;overflow=hidden;whiteSpace=wrap;html=1;" parent="25DXGSUmXVS9__8GqDEa-238" vertex="1">
          <mxGeometry width="30" height="30" as="geometry">
            <mxRectangle width="30" height="30" as="alternateBounds" />
          </mxGeometry>
        </mxCell>
        <mxCell id="25DXGSUmXVS9__8GqDEa-240" value="id" style="shape=partialRectangle;connectable=0;fillColor=none;top=0;left=0;bottom=0;right=0;align=left;spacingLeft=6;fontStyle=5;overflow=hidden;whiteSpace=wrap;html=1;" parent="25DXGSUmXVS9__8GqDEa-238" vertex="1">
          <mxGeometry x="30" width="150" height="30" as="geometry">
            <mxRectangle width="150" height="30" as="alternateBounds" />
          </mxGeometry>
        </mxCell>
        <mxCell id="25DXGSUmXVS9__8GqDEa-241" value="" style="shape=tableRow;horizontal=0;startSize=0;swimlaneHead=0;swimlaneBody=0;fillColor=none;collapsible=0;dropTarget=0;points=[[0,0.5],[1,0.5]];portConstraint=eastwest;top=0;left=0;right=0;bottom=0;" parent="25DXGSUmXVS9__8GqDEa-237" vertex="1">
          <mxGeometry y="60" width="180" height="30" as="geometry" />
        </mxCell>
        <mxCell id="25DXGSUmXVS9__8GqDEa-242" value="&lt;b&gt;FK&lt;/b&gt;" style="shape=partialRectangle;connectable=0;fillColor=none;top=0;left=0;bottom=0;right=0;editable=1;overflow=hidden;whiteSpace=wrap;html=1;" parent="25DXGSUmXVS9__8GqDEa-241" vertex="1">
          <mxGeometry width="30" height="30" as="geometry">
            <mxRectangle width="30" height="30" as="alternateBounds" />
          </mxGeometry>
        </mxCell>
        <mxCell id="25DXGSUmXVS9__8GqDEa-243" value="user_id" style="shape=partialRectangle;connectable=0;fillColor=none;top=0;left=0;bottom=0;right=0;align=left;spacingLeft=6;overflow=hidden;whiteSpace=wrap;html=1;" parent="25DXGSUmXVS9__8GqDEa-241" vertex="1">
          <mxGeometry x="30" width="150" height="30" as="geometry">
            <mxRectangle width="150" height="30" as="alternateBounds" />
          </mxGeometry>
        </mxCell>
        <mxCell id="25DXGSUmXVS9__8GqDEa-293" value="" style="shape=tableRow;horizontal=0;startSize=0;swimlaneHead=0;swimlaneBody=0;fillColor=none;collapsible=0;dropTarget=0;points=[[0,0.5],[1,0.5]];portConstraint=eastwest;top=0;left=0;right=0;bottom=0;" parent="25DXGSUmXVS9__8GqDEa-237" vertex="1">
          <mxGeometry y="90" width="180" height="30" as="geometry" />
        </mxCell>
        <mxCell id="25DXGSUmXVS9__8GqDEa-294" value="" style="shape=partialRectangle;connectable=0;fillColor=none;top=0;left=0;bottom=0;right=0;editable=1;overflow=hidden;whiteSpace=wrap;html=1;" parent="25DXGSUmXVS9__8GqDEa-293" vertex="1">
          <mxGeometry width="30" height="30" as="geometry">
            <mxRectangle width="30" height="30" as="alternateBounds" />
          </mxGeometry>
        </mxCell>
        <mxCell id="25DXGSUmXVS9__8GqDEa-295" value="title" style="shape=partialRectangle;connectable=0;fillColor=none;top=0;left=0;bottom=0;right=0;align=left;spacingLeft=6;overflow=hidden;whiteSpace=wrap;html=1;" parent="25DXGSUmXVS9__8GqDEa-293" vertex="1">
          <mxGeometry x="30" width="150" height="30" as="geometry">
            <mxRectangle width="150" height="30" as="alternateBounds" />
          </mxGeometry>
        </mxCell>
        <mxCell id="25DXGSUmXVS9__8GqDEa-244" value="" style="shape=tableRow;horizontal=0;startSize=0;swimlaneHead=0;swimlaneBody=0;fillColor=none;collapsible=0;dropTarget=0;points=[[0,0.5],[1,0.5]];portConstraint=eastwest;top=0;left=0;right=0;bottom=0;" parent="25DXGSUmXVS9__8GqDEa-237" vertex="1">
          <mxGeometry y="120" width="180" height="30" as="geometry" />
        </mxCell>
        <mxCell id="25DXGSUmXVS9__8GqDEa-245" value="" style="shape=partialRectangle;connectable=0;fillColor=none;top=0;left=0;bottom=0;right=0;editable=1;overflow=hidden;whiteSpace=wrap;html=1;" parent="25DXGSUmXVS9__8GqDEa-244" vertex="1">
          <mxGeometry width="30" height="30" as="geometry">
            <mxRectangle width="30" height="30" as="alternateBounds" />
          </mxGeometry>
        </mxCell>
        <mxCell id="25DXGSUmXVS9__8GqDEa-246" value="description" style="shape=partialRectangle;connectable=0;fillColor=none;top=0;left=0;bottom=0;right=0;align=left;spacingLeft=6;overflow=hidden;whiteSpace=wrap;html=1;" parent="25DXGSUmXVS9__8GqDEa-244" vertex="1">
          <mxGeometry x="30" width="150" height="30" as="geometry">
            <mxRectangle width="150" height="30" as="alternateBounds" />
          </mxGeometry>
        </mxCell>
        <mxCell id="25DXGSUmXVS9__8GqDEa-247" value="" style="shape=tableRow;horizontal=0;startSize=0;swimlaneHead=0;swimlaneBody=0;fillColor=none;collapsible=0;dropTarget=0;points=[[0,0.5],[1,0.5]];portConstraint=eastwest;top=0;left=0;right=0;bottom=0;" parent="25DXGSUmXVS9__8GqDEa-237" vertex="1">
          <mxGeometry y="150" width="180" height="20" as="geometry" />
        </mxCell>
        <mxCell id="25DXGSUmXVS9__8GqDEa-248" value="" style="shape=partialRectangle;connectable=0;fillColor=none;top=0;left=0;bottom=0;right=0;editable=1;overflow=hidden;whiteSpace=wrap;html=1;" parent="25DXGSUmXVS9__8GqDEa-247" vertex="1">
          <mxGeometry width="30" height="20" as="geometry">
            <mxRectangle width="30" height="20" as="alternateBounds" />
          </mxGeometry>
        </mxCell>
        <mxCell id="25DXGSUmXVS9__8GqDEa-249" value="priority" style="shape=partialRectangle;connectable=0;fillColor=none;top=0;left=0;bottom=0;right=0;align=left;spacingLeft=6;overflow=hidden;whiteSpace=wrap;html=1;" parent="25DXGSUmXVS9__8GqDEa-247" vertex="1">
          <mxGeometry x="30" width="150" height="20" as="geometry">
            <mxRectangle width="150" height="20" as="alternateBounds" />
          </mxGeometry>
        </mxCell>
        <mxCell id="25DXGSUmXVS9__8GqDEa-250" value="" style="shape=tableRow;horizontal=0;startSize=0;swimlaneHead=0;swimlaneBody=0;fillColor=none;collapsible=0;dropTarget=0;points=[[0,0.5],[1,0.5]];portConstraint=eastwest;top=0;left=0;right=0;bottom=0;" parent="25DXGSUmXVS9__8GqDEa-237" vertex="1">
          <mxGeometry y="170" width="180" height="30" as="geometry" />
        </mxCell>
        <mxCell id="25DXGSUmXVS9__8GqDEa-251" value="" style="shape=partialRectangle;connectable=0;fillColor=none;top=0;left=0;bottom=0;right=0;editable=1;overflow=hidden;whiteSpace=wrap;html=1;" parent="25DXGSUmXVS9__8GqDEa-250" vertex="1">
          <mxGeometry width="30" height="30" as="geometry">
            <mxRectangle width="30" height="30" as="alternateBounds" />
          </mxGeometry>
        </mxCell>
        <mxCell id="25DXGSUmXVS9__8GqDEa-252" value="created_at" style="shape=partialRectangle;connectable=0;fillColor=none;top=0;left=0;bottom=0;right=0;align=left;spacingLeft=6;overflow=hidden;whiteSpace=wrap;html=1;" parent="25DXGSUmXVS9__8GqDEa-250" vertex="1">
          <mxGeometry x="30" width="150" height="30" as="geometry">
            <mxRectangle width="150" height="30" as="alternateBounds" />
          </mxGeometry>
        </mxCell>
        <mxCell id="25DXGSUmXVS9__8GqDEa-284" value="" style="shape=tableRow;horizontal=0;startSize=0;swimlaneHead=0;swimlaneBody=0;fillColor=none;collapsible=0;dropTarget=0;points=[[0,0.5],[1,0.5]];portConstraint=eastwest;top=0;left=0;right=0;bottom=0;" parent="25DXGSUmXVS9__8GqDEa-237" vertex="1">
          <mxGeometry y="200" width="180" height="30" as="geometry" />
        </mxCell>
        <mxCell id="25DXGSUmXVS9__8GqDEa-285" value="" style="shape=partialRectangle;connectable=0;fillColor=none;top=0;left=0;bottom=0;right=0;editable=1;overflow=hidden;whiteSpace=wrap;html=1;" parent="25DXGSUmXVS9__8GqDEa-284" vertex="1">
          <mxGeometry width="30" height="30" as="geometry">
            <mxRectangle width="30" height="30" as="alternateBounds" />
          </mxGeometry>
        </mxCell>
        <mxCell id="25DXGSUmXVS9__8GqDEa-286" value="updated_at" style="shape=partialRectangle;connectable=0;fillColor=none;top=0;left=0;bottom=0;right=0;align=left;spacingLeft=6;overflow=hidden;whiteSpace=wrap;html=1;" parent="25DXGSUmXVS9__8GqDEa-284" vertex="1">
          <mxGeometry x="30" width="150" height="30" as="geometry">
            <mxRectangle width="150" height="30" as="alternateBounds" />
          </mxGeometry>
        </mxCell>
        <mxCell id="25DXGSUmXVS9__8GqDEa-296" style="edgeStyle=orthogonalEdgeStyle;rounded=0;orthogonalLoop=1;jettySize=auto;html=1;entryX=0;entryY=0.5;entryDx=0;entryDy=0;startArrow=ERmandOne;startFill=0;endArrow=ERzeroToMany;endFill=0;" parent="1" source="25DXGSUmXVS9__8GqDEa-66" target="25DXGSUmXVS9__8GqDEa-241" edge="1">
          <mxGeometry relative="1" as="geometry" />
        </mxCell>
        <mxCell id="25DXGSUmXVS9__8GqDEa-301" style="edgeStyle=orthogonalEdgeStyle;rounded=0;orthogonalLoop=1;jettySize=auto;html=1;entryX=0;entryY=0.5;entryDx=0;entryDy=0;startArrow=none;startFill=0;endArrow=none;endFill=0;" parent="1" source="25DXGSUmXVS9__8GqDEa-300" target="25DXGSUmXVS9__8GqDEa-75" edge="1">
          <mxGeometry relative="1" as="geometry" />
        </mxCell>
        <mxCell id="25DXGSUmXVS9__8GqDEa-300" value="&lt;font style=&quot;font-size: 14px;&quot; color=&quot;#ffffff&quot;&gt;S3&lt;/font&gt;" style="ellipse;shape=cloud;whiteSpace=wrap;html=1;fillColor=#e3c800;fontColor=#000000;strokeColor=#B09500;" parent="1" vertex="1">
          <mxGeometry x="450" y="-510" width="120" height="80" as="geometry" />
        </mxCell>
        <mxCell id="25DXGSUmXVS9__8GqDEa-303" value="Search Note" style="ellipse;whiteSpace=wrap;html=1;fillColor=#dae8fc;strokeColor=#6c8ebf;" parent="1" vertex="1">
          <mxGeometry x="1330" y="-205" width="80" height="60" as="geometry" />
        </mxCell>
        <mxCell id="ZvzzXFBq8UBPMC4j89Qv-1" value="&lt;font style=&quot;font-size: 10px;&quot;&gt;Confirmed&lt;/font&gt;&lt;div&gt;&lt;font style=&quot;font-size: 10px;&quot;&gt;Mail?&lt;/font&gt;&lt;/div&gt;" style="rhombus;whiteSpace=wrap;html=1;fillColor=#1ba1e2;strokeColor=#006EAF;fontColor=#ffffff;" vertex="1" parent="1">
          <mxGeometry x="610" y="113" width="80" height="80" as="geometry" />
        </mxCell>
        <mxCell id="ZvzzXFBq8UBPMC4j89Qv-2" style="edgeStyle=orthogonalEdgeStyle;rounded=0;orthogonalLoop=1;jettySize=auto;html=1;exitX=0.5;exitY=1;exitDx=0;exitDy=0;entryX=1;entryY=0.451;entryDx=0;entryDy=0;entryPerimeter=0;" edge="1" parent="1" source="ZvzzXFBq8UBPMC4j89Qv-1" target="25DXGSUmXVS9__8GqDEa-211">
          <mxGeometry relative="1" as="geometry" />
        </mxCell>
        <mxCell id="ZvzzXFBq8UBPMC4j89Qv-3" value="NO" style="edgeLabel;html=1;align=center;verticalAlign=middle;resizable=0;points=[];" vertex="1" connectable="0" parent="ZvzzXFBq8UBPMC4j89Qv-2">
          <mxGeometry x="-0.8874" relative="1" as="geometry">
            <mxPoint as="offset" />
          </mxGeometry>
        </mxCell>
        <mxCell id="ZvzzXFBq8UBPMC4j89Qv-4" style="edgeStyle=orthogonalEdgeStyle;rounded=0;orthogonalLoop=1;jettySize=auto;html=1;entryX=-0.028;entryY=0.537;entryDx=0;entryDy=0;entryPerimeter=0;" edge="1" parent="1" source="ZvzzXFBq8UBPMC4j89Qv-1" target="25DXGSUmXVS9__8GqDEa-167">
          <mxGeometry relative="1" as="geometry" />
        </mxCell>
        <mxCell id="ZvzzXFBq8UBPMC4j89Qv-5" value="&lt;font style=&quot;font-size: 14px;&quot; color=&quot;#4d9900&quot;&gt;&lt;b&gt;Authorized&lt;/b&gt;&lt;/font&gt;" style="edgeLabel;html=1;align=center;verticalAlign=middle;resizable=0;points=[];" vertex="1" connectable="0" parent="ZvzzXFBq8UBPMC4j89Qv-4">
          <mxGeometry x="-0.3042" relative="1" as="geometry">
            <mxPoint x="23" as="offset" />
          </mxGeometry>
        </mxCell>
        <mxCell id="ZvzzXFBq8UBPMC4j89Qv-7" value="Yes" style="edgeLabel;html=1;align=center;verticalAlign=middle;resizable=0;points=[];" vertex="1" connectable="0" parent="ZvzzXFBq8UBPMC4j89Qv-4">
          <mxGeometry x="-0.9229" y="2" relative="1" as="geometry">
            <mxPoint x="6" as="offset" />
          </mxGeometry>
        </mxCell>
      </root>
    </mxGraphModel>
  </diagram>
</mxfile>
